REM DIRINDEX 1\6,1\2\7,1\2\8,1\2\9,1\3\10,1\3\11,1\4\12,1\4\13,1\4\14,1\5\15,1\5\16,1\5\17
REM DIRNAME folder01,folder02,folder03,folder04,folder05,folder06,folder07,folder08,folder09,folder10,folder11,folder12,folder13,folder14,folder15,folder16,folder17
TITLE ""
FILE "P2Q_t_0771-0788.mp3" MP3
  TRACK 01 AUDIO
    TITLE "10:cjc040_3196"
    INDEX 01 00:00:00
  TRACK 02 AUDIO
    TITLE "0:"
    INDEX 01 00:00:68
  TRACK 03 AUDIO
    TITLE "11:cjc040_3197"
    INDEX 01 00:01:42
  TRACK 04 AUDIO
    TITLE "0:"
    INDEX 01 00:04:11
  TRACK 05 AUDIO
    TITLE "10:cjc040_3198"
    INDEX 01 00:04:58
  TRACK 06 AUDIO
    TITLE "0:"
    INDEX 01 00:05:54
  TRACK 07 AUDIO
    TITLE "11:cjc040_3199"
    INDEX 01 00:06:43
  TRACK 08 AUDIO
    TITLE "0:"
    INDEX 01 00:09:32
  TRACK 09 AUDIO
    TITLE "10:cjc040_3200"
    INDEX 01 00:10:04
  TRACK 10 AUDIO
    TITLE "0:"
    INDEX 01 00:11:05
  TRACK 11 AUDIO
    TITLE "11:cjc040_3201"
    INDEX 01 00:11:60
  TRACK 12 AUDIO
    TITLE "0:"
    INDEX 01 00:13:35
  TRACK 13 AUDIO
    TITLE "10:cjc040_3202"
    INDEX 01 00:14:13
  TRACK 14 AUDIO
    TITLE "0:"
    INDEX 01 00:15:27
  TRACK 15 AUDIO
    TITLE "11:cjc040_3203"
    INDEX 01 00:16:02
  TRACK 16 AUDIO
    TITLE "0:"
    INDEX 01 00:17:14
  TRACK 17 AUDIO
    TITLE "10:cjc040_3204"
    INDEX 01 00:17:69
  TRACK 18 AUDIO
    TITLE "0:"
    INDEX 01 00:19:05
  TRACK 19 AUDIO
    TITLE "11:cjc040_3205"
    INDEX 01 00:19:56
  TRACK 20 AUDIO
    TITLE "0:"
    INDEX 01 00:21:11
  TRACK 21 AUDIO
    TITLE "10:cjc040_3206"
    INDEX 01 00:21:64
  TRACK 22 AUDIO
    TITLE "0:"
    INDEX 01 00:23:12
  TRACK 23 AUDIO
    TITLE "11:cjc040_3207"
    INDEX 01 00:23:63
  TRACK 24 AUDIO
    TITLE "0:"
    INDEX 01 00:25:17
  TRACK 25 AUDIO
    TITLE "10:cjc040_3208"
    INDEX 01 00:26:03
  TRACK 26 AUDIO
    TITLE "0:"
    INDEX 01 00:27:14
  TRACK 27 AUDIO
    TITLE "11:cjc040_3209"
    INDEX 01 00:27:65
  TRACK 28 AUDIO
    TITLE "0:"
    INDEX 01 00:29:15
  TRACK 29 AUDIO
    TITLE "10:cjc040_3210"
    INDEX 01 00:29:70
  TRACK 30 AUDIO
    TITLE "0:"
    INDEX 01 00:31:14
  TRACK 31 AUDIO
    TITLE "11:cjc040_3211"
    INDEX 01 00:31:65
  TRACK 32 AUDIO
    TITLE "0:"
    INDEX 01 00:34:18
  TRACK 33 AUDIO
    TITLE "10:cjc040_3212"
    INDEX 01 00:34:71
  TRACK 34 AUDIO
    TITLE "0:"
    INDEX 01 00:36:11
  TRACK 35 AUDIO
    TITLE "11:cjc040_3213"
    INDEX 01 00:36:70
  TRACK 36 AUDIO
    TITLE "0:"
    INDEX 01 00:39:62
  TRACK 37 AUDIO
    TITLE "10:cjc040_3214"
    INDEX 01 00:40:40
  TRACK 38 AUDIO
    TITLE "0:"
    INDEX 01 00:41:42
  TRACK 39 AUDIO
    TITLE "11:cjc040_3215"
    INDEX 01 00:42:23
  TRACK 40 AUDIO
    TITLE "0:"
    INDEX 01 00:43:23
  TRACK 41 AUDIO
    TITLE "10:cjc040_3216"
    INDEX 01 00:44:07
  TRACK 42 AUDIO
    TITLE "0:"
    INDEX 01 00:45:20
  TRACK 43 AUDIO
    TITLE "11:cjc040_3217"
    INDEX 01 00:46:02
  TRACK 44 AUDIO
    TITLE "0:"
    INDEX 01 00:47:38
  TRACK 45 AUDIO
    TITLE "10:cjc040_3218"
    INDEX 01 00:48:16
  TRACK 46 AUDIO
    TITLE "0:"
    INDEX 01 00:49:35
  TRACK 47 AUDIO
    TITLE "11:cjc040_3219"
    INDEX 01 00:50:07
  TRACK 48 AUDIO
    TITLE "0:"
    INDEX 01 00:51:50
  TRACK 49 AUDIO
    TITLE "10:cjc040_3220"
    INDEX 01 00:52:30
  TRACK 50 AUDIO
    TITLE "0:"
    INDEX 01 00:53:41
  TRACK 51 AUDIO
    TITLE "11:cjc040_3221"
    INDEX 01 00:54:23
  TRACK 52 AUDIO
    TITLE "0:"
    INDEX 01 00:56:63
  TRACK 53 AUDIO
    TITLE "10:cjc040_3222"
    INDEX 01 00:57:45
  TRACK 54 AUDIO
    TITLE "0:"
    INDEX 01 00:58:54
  TRACK 55 AUDIO
    TITLE "11:cjc040_3223"
    INDEX 01 00:59:26
  TRACK 56 AUDIO
    TITLE "0:"
    INDEX 01 01:00:51
  TRACK 57 AUDIO
    TITLE "10:cjc040_3224"
    INDEX 01 01:01:25
  TRACK 58 AUDIO
    TITLE "0:"
    INDEX 01 01:02:65
  TRACK 59 AUDIO
    TITLE "11:cjc040_3225"
    INDEX 01 01:03:43
  TRACK 60 AUDIO
    TITLE "0:"
    INDEX 01 01:06:26
  TRACK 61 AUDIO
    TITLE "10:cjc040_3226"
    INDEX 01 01:07:10
  TRACK 62 AUDIO
    TITLE "0:"
    INDEX 01 01:08:23
  TRACK 63 AUDIO
    TITLE "11:cjc040_3227"
    INDEX 01 01:09:05
  TRACK 64 AUDIO
    TITLE "0:"
    INDEX 01 01:11:68
  TRACK 65 AUDIO
    TITLE "10:cjc040_3228"
    INDEX 01 01:12:40
  TRACK 66 AUDIO
    TITLE "0:"
    INDEX 01 01:13:51
  TRACK 67 AUDIO
    TITLE "11:cjc040_3229"
    INDEX 01 01:14:33
  TRACK 68 AUDIO
    TITLE "0:"
    INDEX 01 01:17:35
  TRACK 69 AUDIO
    TITLE "10:cjc040_3230"
    INDEX 01 01:18:13
  TRACK 70 AUDIO
    TITLE "0:"
    INDEX 01 01:19:27
  TRACK 71 AUDIO
    TITLE "11:cjc040_3231"
    INDEX 01 01:20:10
  TRACK 72 AUDIO
    TITLE "0:"
    INDEX 01 01:21:45
